<mxfile host="app.diagrams.net" modified="2023-02-07T18:24:59.545Z" agent="5.0 (Windows NT 10.0; Win64; x64) AppleWebKit/537.36 (KHTML, like Gecko) Chrome/109.0.0.0 Safari/537.36 Edg/109.0.1518.78" etag="IWMtDa8VnvfvfmIW6JMR" version="20.8.18" type="github">
  <diagram name="Page-1" id="e8038OTD_H8Te-tq6XlR">
    <mxGraphModel dx="1997" dy="608" grid="1" gridSize="10" guides="1" tooltips="1" connect="1" arrows="1" fold="1" page="1" pageScale="1" pageWidth="850" pageHeight="1100" math="0" shadow="0">
      <root>
        <mxCell id="0" />
        <mxCell id="1" parent="0" />
        <mxCell id="F1sUzvNmXzPUqXjbvKIh-1" value="Vendedores" style="rounded=0;whiteSpace=wrap;html=1;" vertex="1" parent="1">
          <mxGeometry x="80" y="390" width="120" height="60" as="geometry" />
        </mxCell>
        <mxCell id="F1sUzvNmXzPUqXjbvKIh-2" value="Sales_Rep_id (PK)" style="ellipse;whiteSpace=wrap;html=1;fillColor=#FFFA6B;" vertex="1" parent="1">
          <mxGeometry x="95" y="300" width="90" height="50" as="geometry" />
        </mxCell>
        <mxCell id="F1sUzvNmXzPUqXjbvKIh-3" value="Sales_Rep" style="ellipse;whiteSpace=wrap;html=1;fillColor=#FFFFFF;" vertex="1" parent="1">
          <mxGeometry x="-30" y="500" width="90" height="50" as="geometry" />
        </mxCell>
        <mxCell id="F1sUzvNmXzPUqXjbvKIh-4" value="Company_id" style="ellipse;whiteSpace=wrap;html=1;fillColor=#FFFFFF;" vertex="1" parent="1">
          <mxGeometry x="95" y="550" width="90" height="50" as="geometry" />
        </mxCell>
        <mxCell id="F1sUzvNmXzPUqXjbvKIh-5" value="Company_Name" style="ellipse;whiteSpace=wrap;html=1;fillColor=#FFFFFF;" vertex="1" parent="1">
          <mxGeometry x="190" y="510" width="90" height="50" as="geometry" />
        </mxCell>
        <mxCell id="F1sUzvNmXzPUqXjbvKIh-23" value="" style="endArrow=none;html=1;rounded=0;entryX=0.5;entryY=1;entryDx=0;entryDy=0;exitX=0.5;exitY=0;exitDx=0;exitDy=0;" edge="1" parent="1" source="F1sUzvNmXzPUqXjbvKIh-3" target="F1sUzvNmXzPUqXjbvKIh-1">
          <mxGeometry width="50" height="50" relative="1" as="geometry">
            <mxPoint x="40" y="480" as="sourcePoint" />
            <mxPoint x="90" y="430" as="targetPoint" />
          </mxGeometry>
        </mxCell>
        <mxCell id="F1sUzvNmXzPUqXjbvKIh-26" value="" style="endArrow=none;html=1;rounded=0;" edge="1" parent="1" source="F1sUzvNmXzPUqXjbvKIh-4">
          <mxGeometry width="50" height="50" relative="1" as="geometry">
            <mxPoint x="90" y="480" as="sourcePoint" />
            <mxPoint x="140" y="450" as="targetPoint" />
          </mxGeometry>
        </mxCell>
        <mxCell id="F1sUzvNmXzPUqXjbvKIh-27" value="" style="endArrow=none;html=1;rounded=0;entryX=0.5;entryY=1;entryDx=0;entryDy=0;exitX=0.5;exitY=0;exitDx=0;exitDy=0;" edge="1" parent="1" source="F1sUzvNmXzPUqXjbvKIh-5" target="F1sUzvNmXzPUqXjbvKIh-1">
          <mxGeometry width="50" height="50" relative="1" as="geometry">
            <mxPoint x="170" y="490" as="sourcePoint" />
            <mxPoint x="140" y="440" as="targetPoint" />
          </mxGeometry>
        </mxCell>
        <mxCell id="F1sUzvNmXzPUqXjbvKIh-30" value="" style="endArrow=none;html=1;rounded=0;entryX=0.5;entryY=1;entryDx=0;entryDy=0;exitX=0.5;exitY=0;exitDx=0;exitDy=0;" edge="1" parent="1" source="F1sUzvNmXzPUqXjbvKIh-1" target="F1sUzvNmXzPUqXjbvKIh-2">
          <mxGeometry width="50" height="50" relative="1" as="geometry">
            <mxPoint x="135" y="390" as="sourcePoint" />
            <mxPoint x="185" y="340" as="targetPoint" />
          </mxGeometry>
        </mxCell>
        <mxCell id="F1sUzvNmXzPUqXjbvKIh-31" value="Toman" style="rhombus;whiteSpace=wrap;html=1;fillColor=#FFFFFF;" vertex="1" parent="1">
          <mxGeometry x="400" y="270" width="80" height="80" as="geometry" />
        </mxCell>
        <mxCell id="F1sUzvNmXzPUqXjbvKIh-32" value="Hacen" style="rhombus;whiteSpace=wrap;html=1;fillColor=#FFFFFF;" vertex="1" parent="1">
          <mxGeometry x="400" y="550" width="80" height="80" as="geometry" />
        </mxCell>
        <mxCell id="F1sUzvNmXzPUqXjbvKIh-33" value="" style="endArrow=none;html=1;rounded=0;entryX=0;entryY=0.5;entryDx=0;entryDy=0;" edge="1" parent="1" target="F1sUzvNmXzPUqXjbvKIh-31">
          <mxGeometry width="50" height="50" relative="1" as="geometry">
            <mxPoint x="200" y="420" as="sourcePoint" />
            <mxPoint x="250" y="370" as="targetPoint" />
          </mxGeometry>
        </mxCell>
        <mxCell id="F1sUzvNmXzPUqXjbvKIh-35" value="" style="endArrow=none;html=1;rounded=0;exitX=1;exitY=0.5;exitDx=0;exitDy=0;entryX=0;entryY=0.5;entryDx=0;entryDy=0;" edge="1" parent="1" source="F1sUzvNmXzPUqXjbvKIh-1" target="F1sUzvNmXzPUqXjbvKIh-32">
          <mxGeometry width="50" height="50" relative="1" as="geometry">
            <mxPoint x="430" y="530" as="sourcePoint" />
            <mxPoint x="480" y="480" as="targetPoint" />
          </mxGeometry>
        </mxCell>
        <mxCell id="F1sUzvNmXzPUqXjbvKIh-36" value="Pedidos" style="rounded=0;whiteSpace=wrap;html=1;fillColor=#FFFFFF;" vertex="1" parent="1">
          <mxGeometry x="580" y="280" width="120" height="60" as="geometry" />
        </mxCell>
        <mxCell id="F1sUzvNmXzPUqXjbvKIh-37" value="Facturas" style="rounded=0;whiteSpace=wrap;html=1;fillColor=#FFFFFF;" vertex="1" parent="1">
          <mxGeometry x="590" y="560" width="120" height="60" as="geometry" />
        </mxCell>
        <mxCell id="F1sUzvNmXzPUqXjbvKIh-39" value="" style="endArrow=none;html=1;rounded=0;entryX=0;entryY=0.5;entryDx=0;entryDy=0;" edge="1" parent="1" target="F1sUzvNmXzPUqXjbvKIh-36">
          <mxGeometry width="50" height="50" relative="1" as="geometry">
            <mxPoint x="480" y="310" as="sourcePoint" />
            <mxPoint x="530" y="260" as="targetPoint" />
          </mxGeometry>
        </mxCell>
        <mxCell id="F1sUzvNmXzPUqXjbvKIh-40" value="" style="endArrow=none;html=1;rounded=0;entryX=0;entryY=0.5;entryDx=0;entryDy=0;" edge="1" parent="1" target="F1sUzvNmXzPUqXjbvKIh-37">
          <mxGeometry width="50" height="50" relative="1" as="geometry">
            <mxPoint x="480" y="590" as="sourcePoint" />
            <mxPoint x="530" y="540" as="targetPoint" />
          </mxGeometry>
        </mxCell>
        <mxCell id="F1sUzvNmXzPUqXjbvKIh-42" value="Order_Value" style="ellipse;whiteSpace=wrap;html=1;fillColor=#FFFFFF;" vertex="1" parent="1">
          <mxGeometry x="730" y="390" width="90" height="50" as="geometry" />
        </mxCell>
        <mxCell id="F1sUzvNmXzPUqXjbvKIh-43" value="Convertes" style="ellipse;whiteSpace=wrap;html=1;fillColor=#FFFFFF;" vertex="1" parent="1">
          <mxGeometry x="600" y="410" width="90" height="50" as="geometry" />
        </mxCell>
        <mxCell id="F1sUzvNmXzPUqXjbvKIh-44" value="Date" style="ellipse;whiteSpace=wrap;html=1;fillColor=#FFFFFF;" vertex="1" parent="1">
          <mxGeometry x="460" y="390" width="90" height="50" as="geometry" />
        </mxCell>
        <mxCell id="F1sUzvNmXzPUqXjbvKIh-45" value="PED_VEND&lt;br&gt;&lt;b&gt;(PK)&lt;/b&gt;" style="ellipse;whiteSpace=wrap;html=1;fillColor=#E6E6E6;" vertex="1" parent="1">
          <mxGeometry x="710" y="180" width="150" height="60" as="geometry" />
        </mxCell>
        <mxCell id="F1sUzvNmXzPUqXjbvKIh-46" value="Company_id" style="ellipse;whiteSpace=wrap;html=1;fillColor=#FFFFFF;" vertex="1" parent="1">
          <mxGeometry x="595" y="180" width="90" height="50" as="geometry" />
        </mxCell>
        <mxCell id="F1sUzvNmXzPUqXjbvKIh-47" value="Order_id &lt;b&gt;(PK)&lt;/b&gt;" style="ellipse;whiteSpace=wrap;html=1;fillColor=#FFFA6B;" vertex="1" parent="1">
          <mxGeometry x="470" y="180" width="90" height="50" as="geometry" />
        </mxCell>
        <mxCell id="F1sUzvNmXzPUqXjbvKIh-50" value="" style="endArrow=none;html=1;rounded=0;exitX=0.5;exitY=0;exitDx=0;exitDy=0;entryX=0.5;entryY=1;entryDx=0;entryDy=0;" edge="1" parent="1" source="F1sUzvNmXzPUqXjbvKIh-36" target="F1sUzvNmXzPUqXjbvKIh-47">
          <mxGeometry width="50" height="50" relative="1" as="geometry">
            <mxPoint x="510" y="300" as="sourcePoint" />
            <mxPoint x="560" y="250" as="targetPoint" />
          </mxGeometry>
        </mxCell>
        <mxCell id="F1sUzvNmXzPUqXjbvKIh-51" value="" style="endArrow=none;html=1;rounded=0;exitX=0.5;exitY=0;exitDx=0;exitDy=0;entryX=0.5;entryY=1;entryDx=0;entryDy=0;" edge="1" parent="1" source="F1sUzvNmXzPUqXjbvKIh-36" target="F1sUzvNmXzPUqXjbvKIh-46">
          <mxGeometry width="50" height="50" relative="1" as="geometry">
            <mxPoint x="660" y="260" as="sourcePoint" />
            <mxPoint x="670" y="250" as="targetPoint" />
          </mxGeometry>
        </mxCell>
        <mxCell id="F1sUzvNmXzPUqXjbvKIh-52" value="" style="endArrow=none;html=1;rounded=0;exitX=0.5;exitY=0;exitDx=0;exitDy=0;entryX=0.5;entryY=1;entryDx=0;entryDy=0;" edge="1" parent="1" source="F1sUzvNmXzPUqXjbvKIh-36" target="F1sUzvNmXzPUqXjbvKIh-45">
          <mxGeometry width="50" height="50" relative="1" as="geometry">
            <mxPoint x="750" y="310" as="sourcePoint" />
            <mxPoint x="800" y="260" as="targetPoint" />
          </mxGeometry>
        </mxCell>
        <mxCell id="F1sUzvNmXzPUqXjbvKIh-55" value="" style="endArrow=none;html=1;rounded=0;entryX=0.5;entryY=1;entryDx=0;entryDy=0;exitX=0.5;exitY=0;exitDx=0;exitDy=0;" edge="1" parent="1" source="F1sUzvNmXzPUqXjbvKIh-44" target="F1sUzvNmXzPUqXjbvKIh-36">
          <mxGeometry width="50" height="50" relative="1" as="geometry">
            <mxPoint x="570" y="390" as="sourcePoint" />
            <mxPoint x="630" y="340" as="targetPoint" />
          </mxGeometry>
        </mxCell>
        <mxCell id="F1sUzvNmXzPUqXjbvKIh-56" value="" style="endArrow=none;html=1;rounded=0;exitX=0.5;exitY=0;exitDx=0;exitDy=0;entryX=0.5;entryY=1;entryDx=0;entryDy=0;" edge="1" parent="1" source="F1sUzvNmXzPUqXjbvKIh-43" target="F1sUzvNmXzPUqXjbvKIh-36">
          <mxGeometry width="50" height="50" relative="1" as="geometry">
            <mxPoint x="590" y="395" as="sourcePoint" />
            <mxPoint x="630" y="360" as="targetPoint" />
          </mxGeometry>
        </mxCell>
        <mxCell id="F1sUzvNmXzPUqXjbvKIh-57" value="" style="endArrow=none;html=1;rounded=0;entryX=0.5;entryY=1;entryDx=0;entryDy=0;exitX=0.5;exitY=0;exitDx=0;exitDy=0;" edge="1" parent="1" source="F1sUzvNmXzPUqXjbvKIh-42" target="F1sUzvNmXzPUqXjbvKIh-36">
          <mxGeometry width="50" height="50" relative="1" as="geometry">
            <mxPoint x="720" y="395" as="sourcePoint" />
            <mxPoint x="770" y="345" as="targetPoint" />
          </mxGeometry>
        </mxCell>
        <mxCell id="F1sUzvNmXzPUqXjbvKIh-58" value="Meal_id" style="ellipse;whiteSpace=wrap;html=1;fillColor=#FFFFFF;" vertex="1" parent="1">
          <mxGeometry x="505" y="740" width="90" height="50" as="geometry" />
        </mxCell>
        <mxCell id="F1sUzvNmXzPUqXjbvKIh-59" value="Participants" style="ellipse;whiteSpace=wrap;html=1;fillColor=#FFFFFF;" vertex="1" parent="1">
          <mxGeometry x="720" y="740" width="90" height="50" as="geometry" />
        </mxCell>
        <mxCell id="F1sUzvNmXzPUqXjbvKIh-60" value="Type_of_meals" style="ellipse;whiteSpace=wrap;html=1;fillColor=#FFFFFF;" vertex="1" parent="1">
          <mxGeometry x="750" y="665" width="90" height="50" as="geometry" />
        </mxCell>
        <mxCell id="F1sUzvNmXzPUqXjbvKIh-61" value="Company_Name" style="ellipse;whiteSpace=wrap;html=1;fillColor=#FFFFFF;" vertex="1" parent="1">
          <mxGeometry x="605" y="680" width="90" height="50" as="geometry" />
        </mxCell>
        <mxCell id="F1sUzvNmXzPUqXjbvKIh-63" value="Company_id" style="ellipse;whiteSpace=wrap;html=1;fillColor=#FFFFFF;" vertex="1" parent="1">
          <mxGeometry x="730" y="480" width="90" height="50" as="geometry" />
        </mxCell>
        <mxCell id="F1sUzvNmXzPUqXjbvKIh-64" value="Meal_id&amp;nbsp;" style="ellipse;whiteSpace=wrap;html=1;fillColor=#FFFFFF;" vertex="1" parent="1">
          <mxGeometry x="605" y="480" width="90" height="50" as="geometry" />
        </mxCell>
        <mxCell id="F1sUzvNmXzPUqXjbvKIh-65" value="Order_id (PK)" style="ellipse;whiteSpace=wrap;html=1;fillColor=#FFFA6B;" vertex="1" parent="1">
          <mxGeometry x="470" y="480" width="90" height="50" as="geometry" />
        </mxCell>
        <mxCell id="F1sUzvNmXzPUqXjbvKIh-66" value="FAC_VEND&lt;br&gt;&lt;b&gt;(PK)&lt;/b&gt;" style="ellipse;whiteSpace=wrap;html=1;fillColor=#E6E6E6;" vertex="1" parent="1">
          <mxGeometry x="410" y="655" width="150" height="60" as="geometry" />
        </mxCell>
        <mxCell id="F1sUzvNmXzPUqXjbvKIh-67" value="" style="endArrow=none;html=1;rounded=0;exitX=0.56;exitY=0.033;exitDx=0;exitDy=0;exitPerimeter=0;entryX=0.5;entryY=1;entryDx=0;entryDy=0;" edge="1" parent="1" source="F1sUzvNmXzPUqXjbvKIh-66" target="F1sUzvNmXzPUqXjbvKIh-37">
          <mxGeometry width="50" height="50" relative="1" as="geometry">
            <mxPoint x="580" y="670" as="sourcePoint" />
            <mxPoint x="630" y="620" as="targetPoint" />
          </mxGeometry>
        </mxCell>
        <mxCell id="F1sUzvNmXzPUqXjbvKIh-68" value="" style="endArrow=none;html=1;rounded=0;entryX=0.5;entryY=1;entryDx=0;entryDy=0;exitX=0.5;exitY=0;exitDx=0;exitDy=0;" edge="1" parent="1" source="F1sUzvNmXzPUqXjbvKIh-61" target="F1sUzvNmXzPUqXjbvKIh-37">
          <mxGeometry width="50" height="50" relative="1" as="geometry">
            <mxPoint x="700" y="670" as="sourcePoint" />
            <mxPoint x="750" y="620" as="targetPoint" />
          </mxGeometry>
        </mxCell>
        <mxCell id="F1sUzvNmXzPUqXjbvKIh-69" value="" style="endArrow=none;html=1;rounded=0;entryX=0.5;entryY=0;entryDx=0;entryDy=0;exitX=0.5;exitY=1;exitDx=0;exitDy=0;" edge="1" parent="1" source="F1sUzvNmXzPUqXjbvKIh-37" target="F1sUzvNmXzPUqXjbvKIh-60">
          <mxGeometry width="50" height="50" relative="1" as="geometry">
            <mxPoint x="660" y="630" as="sourcePoint" />
            <mxPoint x="750" y="605" as="targetPoint" />
          </mxGeometry>
        </mxCell>
        <mxCell id="F1sUzvNmXzPUqXjbvKIh-70" value="" style="endArrow=none;html=1;rounded=0;entryX=0.5;entryY=1;entryDx=0;entryDy=0;exitX=0.5;exitY=0;exitDx=0;exitDy=0;" edge="1" parent="1" source="F1sUzvNmXzPUqXjbvKIh-58" target="F1sUzvNmXzPUqXjbvKIh-37">
          <mxGeometry width="50" height="50" relative="1" as="geometry">
            <mxPoint x="570" y="730" as="sourcePoint" />
            <mxPoint x="620" y="680" as="targetPoint" />
          </mxGeometry>
        </mxCell>
        <mxCell id="F1sUzvNmXzPUqXjbvKIh-71" value="" style="endArrow=none;html=1;rounded=0;exitX=0.5;exitY=0;exitDx=0;exitDy=0;entryX=0.5;entryY=1;entryDx=0;entryDy=0;" edge="1" parent="1" source="F1sUzvNmXzPUqXjbvKIh-59" target="F1sUzvNmXzPUqXjbvKIh-37">
          <mxGeometry width="50" height="50" relative="1" as="geometry">
            <mxPoint x="690" y="715" as="sourcePoint" />
            <mxPoint x="650" y="630" as="targetPoint" />
          </mxGeometry>
        </mxCell>
        <mxCell id="F1sUzvNmXzPUqXjbvKIh-72" value="" style="endArrow=none;html=1;rounded=0;exitX=0.5;exitY=1;exitDx=0;exitDy=0;entryX=0.5;entryY=0;entryDx=0;entryDy=0;" edge="1" parent="1" source="F1sUzvNmXzPUqXjbvKIh-65" target="F1sUzvNmXzPUqXjbvKIh-37">
          <mxGeometry width="50" height="50" relative="1" as="geometry">
            <mxPoint x="530" y="575" as="sourcePoint" />
            <mxPoint x="580" y="525" as="targetPoint" />
          </mxGeometry>
        </mxCell>
        <mxCell id="F1sUzvNmXzPUqXjbvKIh-73" value="" style="endArrow=none;html=1;rounded=0;entryX=0.5;entryY=1;entryDx=0;entryDy=0;" edge="1" parent="1" target="F1sUzvNmXzPUqXjbvKIh-64">
          <mxGeometry width="50" height="50" relative="1" as="geometry">
            <mxPoint x="650" y="560" as="sourcePoint" />
            <mxPoint x="650" y="540" as="targetPoint" />
          </mxGeometry>
        </mxCell>
        <mxCell id="F1sUzvNmXzPUqXjbvKIh-74" value="" style="endArrow=none;html=1;rounded=0;entryX=0.5;entryY=1;entryDx=0;entryDy=0;" edge="1" parent="1" target="F1sUzvNmXzPUqXjbvKIh-63">
          <mxGeometry width="50" height="50" relative="1" as="geometry">
            <mxPoint x="650" y="560" as="sourcePoint" />
            <mxPoint x="700" y="510" as="targetPoint" />
          </mxGeometry>
        </mxCell>
      </root>
    </mxGraphModel>
  </diagram>
</mxfile>
